<svg width="268" height="38" viewBox="0 0 268 38" fill="none" xmlns="http://www.w3.org/2000/svg">
<path d="M23.5256 3.22051H24.4158L19.9371 12.9352L19.492 11.936L23.5256 3.22051ZM15.1524 30.3107L14.6794 29.2837L19.9371 17.7926L20.41 18.8473L15.1524 30.3107ZM1.04856 1.02776H0.992924C0.853833 1.02776 0.714742 1.08327 0.60347 1.13878C0.0749252 1.41635 -0.147619 1.97147 0.102745 2.47109L11.0631 26.286C11.2578 26.6469 11.5916 26.8689 12.0089 26.8689C12.3705 26.8689 12.7322 26.6469 12.8991 26.2583L18.3793 14.3786L18.8522 15.3778L12.6765 28.8119C12.5096 29.0894 12.5096 29.4503 12.6765 29.7278L14.2344 33.1419C14.4013 33.4749 14.7629 33.697 15.1802 33.697C15.5696 33.697 15.9034 33.4749 16.0704 33.1419L21.5505 21.2621L22.0234 22.2614L15.9313 35.5567C15.82 35.8065 15.7922 36.084 15.8756 36.3338C15.9591 36.5836 16.126 36.7779 16.3763 36.9167C16.5711 37 16.7102 37 16.8214 37C17.2387 37 17.5725 36.7779 17.7116 36.3894L23.0805 24.6207L23.776 26.1195C23.9707 26.4803 24.3045 26.7024 24.7218 26.7024C25.0834 26.7024 25.4451 26.4803 25.612 26.0917L36.2385 3.05397H37.1287L25.3616 28.6453C25.1947 28.9229 25.1947 29.2837 25.3616 29.5613L26.9194 32.9753C27.0863 33.3084 27.448 33.5305 27.8652 33.5305C28.2547 33.5305 28.5885 33.3084 28.7554 32.9753L42.5532 3.05397H43.4434L28.5051 35.5289C28.2547 36.0563 28.4216 36.6114 28.9501 36.8612C29.1449 36.9445 29.284 36.9445 29.3952 36.9445C29.8125 36.9445 30.1463 36.7224 30.2854 36.3338L45.9192 2.41557L45.947 2.36006C46.0305 2.11025 46.0305 1.72166 45.8357 1.4441C45.641 1.16654 45.3072 1 44.9734 1H41.8578C41.4961 1 41.1345 1.22205 40.9676 1.61064L27.8652 30.1719L27.3923 29.1449L39.6045 2.5266C39.7992 2.19352 39.6879 1.77718 39.521 1.52737C39.3263 1.24981 39.0481 1.08327 38.7143 1.08327H35.5987C35.2092 1.08327 34.8476 1.30532 34.6529 1.69391L24.694 23.3161L24.1932 22.2059L33.2063 2.63763L33.2341 2.58211C33.3176 2.3323 33.3176 1.94372 33.1229 1.66615C32.956 1.38859 32.5943 1.08327 32.2605 1.08327H29.1449C28.7832 1.08327 28.4216 1.47186 28.2547 1.83269L21.5227 16.4325L21.0498 15.3778L26.8916 2.66538C27.0863 2.33231 26.9751 1.91596 26.8081 1.66615C26.6134 1.38859 26.3352 1.08327 26.0014 1.08327H22.8858C22.4963 1.08327 22.1347 1.4441 21.94 1.83269L18.3793 9.57671L14.7351 1.69391C14.5404 1.33308 14.1787 1.08327 13.8171 1.08327C13.6502 1.08327 13.5111 1.11102 13.3998 1.19429C12.8713 1.47186 12.6487 2.02699 12.8991 2.5266L17.2665 12.0193L11.9811 23.4826L1.93874 1.6384C1.74401 1.27756 1.4102 1.05551 1.04856 1.02776ZM23.1083 19.8188L22.6354 18.8196L29.8403 3.22051H30.7305L23.1083 19.8188Z" fill="#93328E"/>
<path d="M72.0625 15L65.9688 30H62.9375L55 8.6875H59.3125L64.5625 22.4062L70.1562 8.6875H74.3125L79.6875 22.4688L85.1562 8.6875H89.25L81.2188 30H78.1562L72.0625 15ZM96.7625 22.5625V26.8438H109.45V30H93.075V12.5H108.981V15.6875H96.7625V19.5312H104.95V22.5625H96.7625ZM123.744 29.4688L117.119 18.5V30H113.806V12.5H117.65L124.088 22.75L130.525 12.5H134.431V30H130.744V18.5L123.744 29.4688ZM152.35 25.625H144.006L142.006 30H138.569L146.944 12.5H149.756L158.506 30H154.819L152.35 25.625ZM151.35 23.1875L148.069 17.5625L144.944 23.1875H151.35ZM166.269 26.8438H177.644V30H162.581V12.5H166.269V26.8438ZM189.781 22.3438V30H186.094V22.3438L179.25 12.5H183.5L188.156 18.8125L192.625 12.5H196.625L189.781 22.3438ZM208.669 15.6875V30H204.981V15.6875H198.231V12.5H215.419V15.6875H208.669ZM222.587 30H218.9V12.5H222.587V30ZM244.725 24.5L245.975 27.25C244.6 28.2708 243.121 29.0521 241.538 29.5938C239.975 30.1146 238.496 30.375 237.1 30.375C234.308 30.375 232.027 29.6979 230.256 28.3438C229.256 27.5521 228.465 26.5729 227.881 25.4062C227.256 24.1354 226.944 22.75 226.944 21.25C226.944 19.2083 227.517 17.3958 228.663 15.8125C230.496 13.3542 233.298 12.125 237.069 12.125C238.465 12.125 239.871 12.375 241.288 12.875C242.725 13.3542 244.288 14.2708 245.975 15.625L244.506 18.125C243.715 17.3542 242.735 16.7188 241.569 16.2188C240.423 15.6979 239.152 15.4375 237.756 15.4375C235.798 15.4375 234.183 15.9375 232.913 16.9375C231.454 18.0625 230.725 19.5 230.725 21.25C230.725 23.0208 231.454 24.4688 232.913 25.5938C234.204 26.5938 235.819 27.0938 237.756 27.0938C240.34 26.8646 242.663 26 244.725 24.5ZM265.675 14.75L264.113 17.375C263.258 16.6875 262.238 16.1771 261.05 15.8438C259.863 15.4896 258.665 15.3125 257.456 15.3125C256.415 15.3125 255.488 15.4583 254.675 15.75C253.446 16.1458 252.831 16.7292 252.831 17.5C252.831 18.0208 253.133 18.3854 253.738 18.5938C254.342 18.8021 255.425 18.9688 256.988 19.0938L259.456 19.2812C261.602 19.4479 263.217 19.8646 264.3 20.5312C264.883 20.9062 265.363 21.4062 265.738 22.0312C266.238 22.8229 266.488 23.7083 266.488 24.6875C266.488 26.4583 265.727 27.8646 264.206 28.9062C262.706 29.8854 260.675 30.375 258.113 30.375C255.404 30.4375 252.665 29.6875 249.894 28.125L251.019 25.5C251.873 26 252.946 26.4167 254.238 26.75C255.529 27.0625 256.81 27.2188 258.081 27.2188C259.206 27.2188 260.227 27.0729 261.144 26.7812C262.331 26.4271 262.925 25.8542 262.925 25.0625C262.925 24.4167 262.498 23.9688 261.644 23.7188C261.123 23.5521 260.196 23.4167 258.863 23.3125L256.425 23.0938C255.092 22.9896 254.081 22.8542 253.394 22.6875C252.727 22.5208 252.144 22.2812 251.644 21.9688C251.019 21.5521 250.529 20.9896 250.175 20.2812C249.821 19.5521 249.644 18.7604 249.644 17.9062C249.644 15.9896 250.425 14.5208 251.988 13.5C253.446 12.5833 255.258 12.125 257.425 12.125C258.613 12.125 259.842 12.2917 261.113 12.625C262.404 12.9583 263.925 13.6667 265.675 14.75Z" fill="#93328E"/>
</svg>
