<svg width="43" height="34" viewBox="0 0 43 34" fill="none" xmlns="http://www.w3.org/2000/svg">
<path d="M21.717 2.0498H22.5387L18.4043 11.0177L17.9934 10.0952L21.717 2.0498ZM13.9874 27.0573L13.5509 26.1093L18.4043 15.5016L18.8409 16.4752L13.9874 27.0573ZM0.967948 0.0256221H0.916588C0.788191 0.0256221 0.659793 0.0768674 0.557075 0.128112C0.069165 0.384337 -0.13627 0.896785 0.0948456 1.35799L10.2126 23.3421C10.3923 23.6751 10.7005 23.8801 11.0857 23.8801C11.4195 23.8801 11.7533 23.6751 11.9074 23.3164L16.9663 12.35L17.4028 13.2724L11.702 25.6737C11.5479 25.9299 11.5479 26.263 11.702 26.5192L13.14 29.6708C13.2941 29.9783 13.6279 30.1833 14.0131 30.1833C14.3726 30.1833 14.6808 29.9783 14.8349 29.6708L19.8937 18.7044L20.3303 19.6268L14.7065 31.9C14.6038 32.1306 14.5781 32.3868 14.6551 32.6174C14.7321 32.848 14.8862 33.0273 15.1173 33.1555C15.2971 33.2323 15.4255 33.2323 15.5282 33.2323C15.9134 33.2323 16.2216 33.0273 16.35 32.6686L21.3061 21.8047L21.9481 23.1883C22.1278 23.5214 22.436 23.7264 22.8212 23.7264C23.155 23.7264 23.4889 23.5214 23.6429 23.1627L33.4525 1.89606H34.2742L23.4118 25.52C23.2577 25.7762 23.2577 26.1093 23.4118 26.3655L24.8499 29.5171C25.0039 29.8245 25.3378 30.0295 25.723 30.0295C26.0825 30.0295 26.3906 29.8245 26.5447 29.5171L39.2817 1.89606H40.1035L26.3136 31.8743C26.0825 32.3612 26.2366 32.8736 26.7245 33.1042C26.9042 33.1811 27.0326 33.1811 27.1353 33.1811C27.5205 33.1811 27.8287 32.9761 27.9571 32.6174L42.389 1.30674L42.4146 1.2555C42.4917 1.0249 42.4917 0.666183 42.3119 0.409959C42.1322 0.153734 41.824 0 41.5158 0H38.6397C38.3059 0 37.9721 0.204979 37.818 0.563693L25.723 26.9292L25.2864 25.9812L36.5597 1.40924C36.7395 1.10177 36.6367 0.717428 36.4827 0.486826C36.3029 0.230602 36.0461 0.0768672 35.738 0.0768672H32.8619C32.5024 0.0768672 32.1685 0.281847 31.9888 0.640561L22.7955 20.6005L22.3333 19.5756L30.6534 1.51173L30.6791 1.46048C30.7561 1.22988 30.7561 0.871163 30.5764 0.614938C30.4223 0.358714 30.0885 0.0768672 29.7803 0.0768672H26.9042C26.5704 0.0768672 26.2366 0.435582 26.0825 0.768674L19.868 14.2461L19.4315 13.2724L24.8242 1.53735C25.0039 1.22988 24.9012 0.84554 24.7471 0.614938C24.5674 0.358714 24.3106 0.0768672 24.0024 0.0768672H21.1263C20.7668 0.0768672 20.433 0.409959 20.2532 0.768674L16.9663 7.91734L13.6023 0.640561C13.4225 0.307469 13.0887 0.0768672 12.7548 0.0768672C12.6008 0.0768672 12.4724 0.102489 12.3696 0.179356C11.8817 0.435581 11.6763 0.948031 11.9074 1.40924L15.9391 10.1721L11.06 20.7542L1.78969 0.589316C1.60993 0.256224 1.30178 0.0512445 0.967948 0.0256221ZM21.3318 17.372L20.8952 16.4496L27.5462 2.0498H28.368L21.3318 17.372Z" fill="#93328E"/>
</svg>
